<svg preserveAspectRatio="none" overflow="visible" style="display: block;" width="118.09" height="35.5247" viewBox="0 0 118.09 35.5247" fill="none" xmlns="http://www.w3.org/2000/svg">
<g id="Group 2117904805">
<path id="Subtract" d="M9.30507 6.97861C12.1168 6.71105 14.287 7.41647 16.5502 9.0499L16.5414 7.30282L21.3031 7.29404C21.3091 8.78626 21.1449 21.6458 21.5033 22.0138C22.0213 22.5448 22.9427 22.3857 23.6146 22.3712L23.6176 27.0401C20.8319 27.0745 19.1371 26.9994 17.2875 24.6231L16.6019 25.2081C12.929 28.0214 7.68568 28.0773 3.9828 25.296C1.85371 23.6766 0.454923 21.2775 0.0931551 18.627C-0.275764 15.902 0.460253 13.1427 2.13808 10.964C3.96665 8.58823 6.3739 7.36895 9.30507 6.97861ZM16.4682 16.0587C15.882 12.8285 12.7851 10.687 9.55605 11.2784C6.33473 11.8687 4.19991 14.9563 4.78456 18.1788C5.36957 21.4008 8.45295 23.541 11.6762 22.962C14.9069 22.3812 17.0539 19.2886 16.4682 16.0587Z" fill="#FDFDFF"/>
<path id="Subtract_2" d="M84.7047 6.97749C87.4356 6.73266 89.8304 7.36083 92.0133 9.04292L92.0231 7.29487L96.7467 7.29878C96.7505 11.7431 96.7297 16.1875 96.7506 20.6318C96.7592 22.6041 97.342 22.4281 99.0943 22.3681L99.0904 27.04C96.3788 27.078 94.5615 26.9873 92.7965 24.6308L92.0904 25.2099C88.5534 28.0147 83.2015 28.0359 79.5856 25.372C77.4065 23.751 75.9558 21.3337 75.5524 18.6474C75.1717 15.9732 75.8767 13.2578 77.5113 11.1074C79.3269 8.67607 81.7416 7.39948 84.7047 6.97749ZM85.8414 11.1787C82.5558 11.3211 80.0105 14.1063 80.1637 17.3916C80.3179 20.6766 83.1134 23.2115 86.3981 23.0458C89.6656 22.8806 92.185 20.1036 92.0309 16.8349C91.8777 13.5664 89.1099 11.0373 85.8414 11.1787Z" fill="#FDFDFF"/>
<path id="Vector" d="M57.9442 7.17005C58.694 7.1024 59.5315 7.23324 60.2166 7.53946C62.8411 8.71181 63.1503 11.4711 63.6927 13.9307L64.7233 18.5337C64.9812 19.6655 65.5521 22.4311 67.0328 22.4603C68.9046 22.4909 69.4898 20.0694 69.6858 18.6038C69.8657 17.2617 69.7896 15.6484 69.7877 14.2743C69.7772 11.9483 69.7781 9.6221 69.7934 7.29604L74.6103 7.293L74.616 13.4336C74.6255 17.0417 74.8587 19.6377 73.3913 23.0805C71.8792 26.6272 67.9692 28.3762 64.4007 26.7385C59.5809 24.527 60.0482 16.8312 58.4581 12.4214L58.2944 12.2709C57.7967 12.6374 56.2243 20.811 55.6301 22.491C54.134 27.2433 48.2868 29.0471 44.6662 25.453C41.6685 22.4773 41.9467 17.5509 41.9534 13.7134L41.9679 7.30309C43.5412 7.28567 45.1328 7.29909 46.7076 7.30014L46.7039 14.5516C46.7028 16.214 46.2875 22.6061 49.4727 22.4001C51.2124 22.0956 51.3879 19.6684 51.7934 18.3818C52.745 15.3634 52.8859 11.5474 54.6278 8.91231C55.3385 7.83731 56.7604 7.3146 57.9442 7.17005Z" fill="#FDFDFF"/>
<path id="Vector_2" d="M113.329 7.29192L118.063 7.29534L118.058 20.4875C118.06 22.7147 118.19 25.1725 117.914 27.3844C117.809 28.2344 117.102 29.368 116.656 30.1297C112.493 36.3118 110.019 35.5019 103.099 35.4771L103.102 30.8864C105.329 30.8363 109.182 31.3085 110.82 29.9833C112.17 28.891 113.093 27.4321 113.341 25.7095C109.496 28.0534 104.98 27.9855 101.549 24.7789C98.6836 22.1023 99.2089 18.0285 99.2108 14.4254L99.2175 7.3001L103.921 7.30086C104.008 9.99681 103.889 12.871 103.934 15.5824C103.975 16.8688 103.823 18.2411 104.006 19.515C104.47 22.7688 108.12 23.8521 110.751 22.3475C113.823 20.5904 113.329 17.0978 113.321 14.0968L113.329 7.29192Z" fill="#FDFDFF"/>
<path id="Vector_3" d="M34.4612 0.00161754L39.3201 0L39.3136 27.0354L34.4622 27.0471L34.4612 0.00161754Z" fill="#FDFDFF"/>
<path id="Vector_4" d="M25.7307 0.000674884L30.5686 0.00362536L30.5744 27.0382L25.7286 27.0459L25.7307 0.000674884Z" fill="#FDFDFF"/>
</g>
</svg>
